<svg version="1" xmlns="http://www.w3.org/2000/svg" width="853.333" height="853.333" viewBox="0 0 640.000000 640.000000"><path d="M259.5 65.4c-5.2 2.9-29.5 21-32.1 23.9-2.5 2.8-2.9 4-2.9 9.3 0 5.9.2 6.3 6.5 15 3.5 4.9 6.8 9 7.2 9.2.4.2.8.8.8 1.3 0 1.1 14.1 20.2 15.3 20.7.4.2.7.8.7 1.3 0 1.1 11.9 17.3 13.1 17.7.5.2.9.9.9 1.4 0 1.1 7.6 11.7 9 12.8.4.3 1 1.4 1.4 2.5.4 1.5-1.1 4.4-6 11-3.6 5-7.3 10.1-8.2 11.3-.9 1.3-2.8 3.9-4.2 5.8-1.4 1.8-3.6 4.9-5 6.9-1.4 1.9-5 6.9-8 11s-9.1 12.5-13.5 18.6c-4.4 6.1-8.5 11.6-9 12.2-.6.7-3.8 5-7 9.6-10.9 15.3-23.1 32.1-26.7 37-3.3 4.3-7.9 10.8-9.3 13-.5.8-1.4 2-2 2.6-1 1.2-2.2 2.8-7.7 10.5-1.7 2.4-3.5 4.9-4 5.5-1.1 1.3-12.8 17.6-14.8 20.5-.8 1.2-2.1 2.8-2.7 3.6-.7.7-1.3 1.7-1.3 2.2 0 .6-.3 1.2-.8 1.4-.4.1-3.2 3.7-6.2 7.8-2.9 4.1-5.7 7.9-6.2 8.5-.4.5-4.8 6.6-9.8 13.5-4.9 6.9-9.4 13-9.9 13.7-.6.7-1.1 1.6-1.1 2.2 0 .5-.4 1.1-.9 1.3-.5.1-5.7 7-11.6 15.3-6 8.2-12.9 17.8-15.4 21.2-5.3 7.1-17.5 24-34.6 47.8-3.8 5.3-7.5 10.2-8 10.8-.6.7-1.8 2.5-2.9 4.1-1.4 2.3-2.3 2.7-4.7 2.4-1.6-.3-2.9-.2-2.9.1 0 .3-2.5.6-5.5.6s-5.5-.2-5.5-.5-2.4-.4-5.3-.4c-8.9.3-14.8 3.9-17.6 11-.9 2.2-1.1 9-.9 23.1l.3 20 2.9 3.7c5.4 7.2-22.7 6.6 317.9 6.4l308.4-.3 3.7-2.9c6-4.6 6.6-7 6.6-28.7 0-20.6-.5-23.2-5.6-28-2.5-2.3-13.2-5.2-14.7-3.9-.4.4-2.6.4-4.7 0s-4.4-.4-5.1.1c-.7.4-1.7.5-2.2.2-.4-.3-2.5-.5-4.4-.5-2 0-4.1-.5-4.8-1.2-1.2-1.2-18.4-24.8-20-27.4-.5-.9-2-2.7-3.3-4.1-1.2-1.5-2.5-3.4-2.8-4.4-.3-.9-.9-1.7-1.4-1.7-.5 0-1.1-.8-1.4-1.8-.4-1-1.4-2.7-2.4-3.8-1-1-3.3-4.2-5.2-6.9-1.8-2.8-3.6-5.2-4-5.5-.3-.3-1.7-2.1-3-4-1.4-1.9-2.8-4-3.3-4.5-1.7-2.2-25.3-34.7-26.2-36.3-.5-.9-1.3-1.9-1.6-2.2-.3-.3-9.1-12.4-19.7-27-10.5-14.6-19.5-27-19.9-27.5-.5-.6-3.8-5.1-7.3-10-3.5-5-7.3-10.2-8.5-11.7-3.1-4.1-4.9-6.5-6.5-8.8-1.6-2.4-15.9-22-18.7-25.9-1-1.3-3.1-4.2-4.8-6.6-7.9-11.2-18.1-25.1-19.1-26.2-.7-.7-2.2-2.9-3.5-5-1.3-2.1-3.1-4.7-4.1-5.7-1-1.1-3-3.8-4.5-6-1.5-2.3-5.9-8.4-9.8-13.6-3.9-5.2-9.3-12.7-12-16.5-2.7-3.9-5.3-7.5-5.7-8-3.8-4.8-6.8-8.9-6.8-9.4 0-.3-1-1.7-2.2-3.1-2.6-2.8-10.8-14.5-10.8-15.3 0-.5 33.2-46.6 46.9-65.2 3.7-5 7.1-9.9 7.5-11 2.7-6.4.8-14.9-4.3-19-3.7-2.9-24.2-17.7-27.5-19.9-8.4-5.4-17.6-2.3-24.7 8.4-1.3 1.9-2.6 3.7-2.9 4-.3.3-2.1 2.7-4 5.5-1.9 2.7-3.9 5.5-4.5 6.2-.5.6-6.6 9.1-13.5 18.7s-12.7 17.5-13 17.5c-.3 0-4.5-5.7-9.5-12.6-4.9-6.9-9.6-13.2-10.2-13.9-.7-.7-1.3-1.5-1.3-1.8 0-.5-5.2-7.7-8.5-11.8-.8-.9-2.2-2.9-3.2-4.5-1-1.5-2.6-3.7-3.5-4.7-1-1.1-1.8-2.3-1.8-2.8 0-.4-2-2.8-4.4-5.2-3.4-3.5-5.2-4.5-8.7-5-5.6-.6-7-.5-9.4.8zm66.1 294.3c2.6 3.8 5 7 5.3 7.3.4.3 1.7 2.2 3.1 4.2 1.4 2.1 2.8 3.8 3.3 3.8.4 0 .7.5.7 1 0 1.2 11 16.3 12.3 16.8.4.2.7 1 .7 1.8s.5 1.4 1 1.4c.6 0 1 .6 1 1.4 0 .8.3 1.6.8 1.8.4.1 3.5 4.1 6.9 8.8 3.4 4.7 6.6 8.9 7.1 9.5.4.5 2.7 3.7 5 7 5 7.3 48.7 67.3 50.7 69.8.8.9 1.5 2.1 1.5 2.6s.3 1.1.8 1.3c.4.1 2.9 3.2 5.5 6.8 4.1 5.6 4.5 6.5 3 7.1-1 .4-2.2.4-2.7.1-.9-.5-4.7-.5-17.4 0-3.4.2-6.2.1-6.2-.2 0-.3-2.6-.4-5.7-.2-3.2.1-7.6.2-9.8.1h-5.2c-2.5.2-4.4.2-9.8.1-3-.1-5.9.1-6.4.4-.5.4-1.2.2-1.5-.2-.3-.5-2.6-.6-5.1-.2-2.5.4-4.5.4-4.5.1 0-.3-2.6-.5-5.7-.3-3.2.1-7.6.2-9.8.1h-5.2c-2.5.2-4.4.2-9.8.1-3-.1-5.9.1-6.4.4-.5.4-1.2.2-1.5-.2-.3-.5-2.6-.6-5.1-.2-2.5.4-4.5.4-4.5.1 0-.3-2.6-.5-5.7-.3-3.2.1-7.6.2-9.8.1h-5.2c-2.5.2-4.4.2-9.8.1-3-.1-5.9.1-6.4.4-.5.4-1.2.2-1.5-.2-.3-.5-2.6-.6-5.1-.2-2.5.4-4.5.4-4.5.1 0-.3-2.6-.5-5.7-.3-3.2.1-7.6.2-9.8.1h-5.2c-2.5.2-4.4.2-9.8.1-3-.1-5.9.1-6.4.4-.5.4-1.2.2-1.5-.2-.3-.5-2.5-.6-4.8-.3-2.4.3-7.2.4-10.7.1-5.8-.4-6.3-.7-5-2 .8-.8 3.1-4 5.1-7 2-3 4.6-6.5 5.7-7.7 1.2-1.2 2.1-2.7 2.1-3.3 0-.5.5-1 1-1 .6 0 1-.4 1-1 0-.9 8.5-12.7 10.1-14 .3-.3.8-1 1-1.6.2-.6 1.4-2.4 2.7-4 1.2-1.6 5.5-7.4 9.4-12.9 4-5.5 7.6-10.2 8-10.3.4-.2.8-1 .8-1.8s.6-1.7 1.4-2c.8-.3 1.9-1.8 2.6-3.4.7-1.6 1.8-3.1 2.6-3.4.8-.3 1.4-1.2 1.4-2s.4-1.6.8-1.8c.4-.2 4-4.8 8-10.3 3.9-5.5 8.2-11.3 9.4-12.9 1.3-1.6 2.5-3.4 2.7-4 .2-.6.7-1.3 1.1-1.6.3-.3 5.7-7.5 11.8-16 20.8-28.8 25.5-35 26.3-35 .4 0 2.9 3 5.5 6.7z"/></svg>